<svg viewBox="0 0 200 200" xmlns="http://www.w3.org/2000/svg" width="200" height="200">
  <!-- Yellow Background Circle -->
  <circle cx="100" cy="100" r="95" fill="#FCD34D" stroke="#1F1F1F" stroke-width="8"/>
  
  <!-- Head -->
  <circle cx="100" cy="70" r="35" fill="#D4A574"/>
  
  <!-- Hair -->
  <path d="M 65 70 Q 65 35 100 35 Q 135 35 135 70" fill="#1F1F1F"/>
  
  <!-- Hair Details -->
  <path d="M 70 45 Q 75 40 80 45" fill="none" stroke="#1F1F1F" stroke-width="1.5"/>
  <path d="M 85 38 Q 90 35 95 38" fill="none" stroke="#1F1F1F" stroke-width="1.5"/>
  <path d="M 105 38 Q 110 35 115 38" fill="none" stroke="#1F1F1F" stroke-width="1.5"/>
  <path d="M 120 45 Q 125 40 130 45" fill="none" stroke="#1F1F1F" stroke-width="1.5"/>
  
  <!-- Glasses Frame Left -->
  <rect x="68" y="60" width="18" height="15" rx="3" fill="none" stroke="#1F1F1F" stroke-width="2.5"/>
  
  <!-- Glasses Frame Right -->
  <rect x="114" y="60" width="18" height="15" rx="3" fill="none" stroke="#1F1F1F" stroke-width="2.5"/>
  
  <!-- Glasses Bridge -->
  <line x1="86" y1="67" x2="114" y2="67" stroke="#1F1F1F" stroke-width="2.5"/>
  
  <!-- Left Eye -->
  <circle cx="77" cy="67" r="2.5" fill="#1F1F1F"/>
  
  <!-- Right Eye -->
  <circle cx="123" cy="67" r="2.5" fill="#1F1F1F"/>
  
  <!-- Eyebrows -->
  <path d="M 68 58 Q 77 55 86 58" fill="none" stroke="#1F1F1F" stroke-width="2" stroke-linecap="round"/>
  <path d="M 114 58 Q 123 55 132 58" fill="none" stroke="#1F1F1F" stroke-width="2" stroke-linecap="round"/>
  
  <!-- Nose -->
  <line x1="100" y1="67" x2="100" y2="78" stroke="#1F1F1F" stroke-width="2" stroke-linecap="round"/>
  <circle cx="97" cy="80" r="1.5" fill="#1F1F1F"/>
  <circle cx="103" cy="80" r="1.5" fill="#1F1F1F"/>
  
  <!-- Mouth -->
  <path d="M 85 88 Q 100 96 115 88" fill="none" stroke="#1F1F1F" stroke-width="2.5" stroke-linecap="round"/>
  
  <!-- Mustache -->
  <path d="M 85 86 Q 100 90 115 86" fill="none" stroke="#1F1F1F" stroke-width="2" stroke-linecap="round"/>
  
  <!-- Beard -->
  <path d="M 82 92 Q 100 100 118 92" fill="none" stroke="#1F1F1F" stroke-width="2" stroke-linecap="round"/>
  <path d="M 80 95 Q 100 103 120 95" fill="none" stroke="#1F1F1F" stroke-width="1.5" stroke-linecap="round"/>
  
  <!-- Neck -->
  <rect x="88" y="100" width="24" height="12" fill="#D4A574"/>
  
  <!-- Shirt -->
  <path d="M 60 112 Q 60 125 75 130 L 125 130 Q 140 125 140 112 Z" fill="#5BA3D0"/>
  
  <!-- Shirt Collar Left -->
  <path d="M 75 112 L 88 125 L 85 120 Z" fill="#1F1F1F" opacity="0.3"/>
  
  <!-- Shirt Collar Right -->
  <path d="M 125 112 L 112 125 L 115 120 Z" fill="#1F1F1F" opacity="0.3"/>
  
  <!-- Shirt Details -->
  <circle cx="100" cy="118" r="2" fill="#1F1F1F" opacity="0.5"/>
  <circle cx="100" cy="124" r="2" fill="#1F1F1F" opacity="0.5"/>
  
  <!-- Shirt Buttons -->
  <circle cx="100" cy="116" r="1.5" fill="#1F1F1F"/>
  
  <!-- Shoulder Shading -->
  <ellipse cx="65" cy="120" rx="8" ry="12" fill="#4A8BC2" opacity="0.6"/>
  <ellipse cx="135" cy="120" rx="8" ry="12" fill="#4A8BC2" opacity="0.6"/>
</svg>